<?xml version="1.0" encoding="UTF-8"?>
<svg id="_圖層_1" data-name="圖層_1" xmlns="http://www.w3.org/2000/svg" version="1.1" viewBox="0 0 1652.9 387">
  <!-- Generator: Adobe Illustrator 29.0.0, SVG Export Plug-In . SVG Version: 2.1.0 Build 186)  -->
  <defs>
    <style>
      .st0 {
        fill: #264f42;
      }
    </style>
  </defs>
  <g id="_圖層_11" data-name="_圖層_1">
    <g>
      <path class="st0" d="M0,381V0h60.6l128.9,213.2h-13.5L304.2,0h59.8v381h-57.4V78.5l6,1.8-108.7,183.3h-43.4L50.9,81.3l6.7-1.8v301.4H0Z"/>
      <path class="st0" d="M624.1,387c-31.7,0-57.6-3.2-77.8-10-20.2-6.7-36.2-16-47.4-27.7-11.2-12-19-25.7-23.4-41.1-4.2-15.7-6.5-32.4-6.5-50.4V0h61.3v262.3c0,21.2,4.2,37.2,12.5,48.1s19.5,18.2,33.7,22.2c14.2,4,30.2,6,47.6,6s33.4-2,46.6-6c13.5-4,23.7-11.2,30.9-22.2,7.2-11,11-26.9,11-48.1V0h61.3v256.6c0,17.7-2.2,34.4-6.5,50.1s-12,29.7-22.7,41.6-26.2,21.4-45.6,28.2c-19.5,6.7-44.6,10.2-75,10.2h0v.2Z"/>
      <path class="st0" d="M878.9,381V0h60.6l128.9,213.2h-13.2L1183.1,0h59.8v381h-57.3V78.5l6,1.8-108.7,183.3h-43.4l-110-182.3,6.7-1.8v301.5h-57.6.2Z"/>
      <path class="st0" d="M1503,387c-31.7,0-57.6-3.2-77.8-10-20.4-6.7-36.2-16-47.4-27.7-11.2-12-18.9-25.7-23.4-41.1-4.2-15.7-6.5-32.4-6.5-50.4V0h61.3v262.3c0,21.2,4.2,37.2,12.5,48.1s19.4,18.2,33.7,22.2c14.2,4,30.2,6,47.6,6s33.4-2,46.6-6c13.2-4,23.7-11.2,30.9-22.2s11-26.9,11-48.1V0h61.3v256.6c0,17.7-2.2,34.4-6.5,50.1s-12,29.7-22.7,41.6c-11,12-26.2,21.4-45.6,28.2-19.4,6.7-44.6,10.2-75.1,10.2h0v.2Z"/>
    </g>
  </g>
</svg>