<?xml version="1.0" encoding="UTF-8"?>
<svg xmlns="http://www.w3.org/2000/svg" version="1.1" viewBox="0 0 500 500">
  <defs>
    <style>
      .cls-1 {
        fill: #fff;
      }

      .cls-2 {
        fill: #0866ff;
      }
    </style>
  </defs>
  <!-- Generator: Adobe Illustrator 28.7.2, SVG Export Plug-In . SVG Version: 1.2.0 Build 154)  -->
  <g>
    <g id="Logo">
      <g id="Logo-2" data-name="Logo">
        <path id="Initiator" class="cls-2" d="M500,250C500,111.9,388.1,0,250,0S0,111.9,0,250s80.7,215.6,189.6,242.6v-166.2h-51.6v-76.4h51.6v-32.9c0-85.1,38.5-124.5,122-124.5s43.2,3.1,54.3,6.2v69.3c-5.9-.6-16.1-.9-28.9-.9-41,0-56.8,15.5-56.8,55.9v27h81.7l-14,76.4h-67.6v171.8c123.8-15,219.7-120.4,219.7-248.2Z"/>
        <path id="F" class="cls-1" d="M347.9,326.4l14-76.4h-81.7v-27c0-40.4,15.8-55.9,56.8-55.9s23,.3,28.9.9v-69.3c-11.2-3.1-38.5-6.2-54.3-6.2-83.5,0-122,39.4-122,124.5v32.9h-51.6v76.4h51.6v166.2c19.3,4.8,39.6,7.4,60.4,7.4s20.4-.6,30.3-1.8v-171.8h67.6Z"/>
      </g>
    </g>
  </g>
</svg>