<?xml version="1.0" encoding="UTF-8"?>
<svg xmlns="http://www.w3.org/2000/svg" version="1.1" viewBox="0 0 320 320">
  <defs>
    <style>
      .cls-1 {
        fill: #231815;
        font-size: 29.6px;
      }

      .cls-2 {
        fill: #4cc764;
      }

      .cls-3 {
        font-family: LINESeed-Bold, 'LINESeed Bold';
        font-size: 18.6px;
      }

      .cls-3, .cls-4 {
        font-weight: 700;
      }

      .cls-5 {
        font-family: LINESeed-Regular, 'LINESeed Regular';
      }

      .cls-6 {
        fill: #fff;
      }

      .cls-4 {
        font-family: LINESeed-ExtraBold, 'LINESeed ExtraBold';
      }
    </style>
  </defs>
  <!-- Generator: Adobe Illustrator 28.7.2, SVG Export Plug-In . SVG Version: 1.2.0 Build 154)  -->
  <g>
    <g id="BG">
      <rect class="cls-6" x="458.4" y="486.6" width="1920" height="1200"/>
      <text class="cls-1" transform="translate(538.8 586)"><tspan class="cls-4"><tspan x="0" y="0">LINE APP ICON / Android</tspan></tspan><tspan class="cls-5"><tspan x="0" y="41">RGB</tspan></tspan></text>
    </g>
    <g id="LINE_LOGO">
      <g>
        <rect class="cls-2" x="1357.9" y="1296.4" width="21.9" height="21.9"/>
        <text class="cls-3" transform="translate(1388.4 1313.8)"><tspan x="0" y="0">#4CC764</tspan></text>
      </g>
      <g>
        <circle class="cls-2" cx="160" cy="160" r="160"/>
        <g>
          <path class="cls-6" d="M266.7,150.7c0-47.8-47.9-86.7-106.8-86.7s-106.8,38.9-106.8,86.7,38,78.7,89.3,85.5c3.5.8,8.2,2.3,9.4,5.3,1.1,2.7.7,6.9.3,9.7,0,0-1.3,7.5-1.5,9.1-.5,2.7-2.1,10.6,9.3,5.8,11.4-4.8,61.5-36.2,83.9-62h0c15.5-17,22.9-34.2,22.9-53.3Z"/>
          <g>
            <path class="cls-2" d="M231.2,178.3c1.1,0,2-.9,2-2v-7.6c0-1.1-.9-2-2-2h-20.4v-7.9h20.4c1.1,0,2-.9,2-2v-7.6c0-1.1-.9-2-2-2h-20.4v-7.9h20.4c1.1,0,2-.9,2-2v-7.6c0-1.1-.9-2-2-2h-30c-1.1,0-2,.9-2,2h0v46.6h0c0,1.2.9,2.1,2,2.1h30Z"/>
            <path class="cls-2" d="M120.2,178.3c1.1,0,2-.9,2-2v-7.6c0-1.1-.9-2-2-2h-20.4v-37c0-1.1-.9-2-2-2h-7.6c-1.1,0-2,.9-2,2v46.6h0c0,1.2.9,2.1,2,2.1h30Z"/>
            <rect class="cls-2" x="128.6" y="127.6" width="11.7" height="50.7" rx="2" ry="2"/>
            <path class="cls-2" d="M189.8,127.6h-7.6c-1.1,0-2,.9-2,2v27.7l-21.3-28.8c0,0-.1-.1-.2-.2,0,0,0,0,0,0,0,0,0,0-.1-.1,0,0,0,0,0,0,0,0,0,0-.1,0,0,0,0,0,0,0,0,0,0,0-.1,0,0,0,0,0,0,0,0,0,0,0-.1,0,0,0,0,0,0,0,0,0,0,0-.1,0,0,0,0,0,0,0,0,0,0,0-.1,0,0,0,0,0,0,0,0,0,0,0-.1,0,0,0,0,0,0,0,0,0,0,0-.1,0,0,0,0,0-.1,0,0,0,0,0,0,0h-7.5c-1.1,0-2,.9-2,2v46.6c0,1.1.9,2,2,2h7.6c1.1,0,2-.9,2-2v-27.7l21.4,28.8c.1.2.3.4.5.5,0,0,0,0,0,0,0,0,0,0,.1,0,0,0,0,0,0,0,0,0,0,0,0,0,0,0,0,0,0,0,0,0,0,0,0,0,0,0,0,0,.1,0,0,0,0,0,0,0,.2,0,.3,0,.5,0h7.5c1.1,0,2-.9,2-2v-46.6c0-1.1-.9-2-2-2Z"/>
          </g>
        </g>
      </g>
    </g>
  </g>
</svg>